:SAMPLES-PER-SECOND 30
:FRAME-RANGE 1-2775
:FULLY-SPECIFIED
:DEGREES
1475
root  37.0701 37.1602 0.716411 176.971 36.3092 173.067
RightUpLeg  -1.94131 0.523119 -7.58916
RightLeg  57.9959 12.5779 20.295
RightFoot  10.5738 -6.10224 31.1835
RightToes  -5.28216e-011 1.2921e-014 -6.02303e-014
Spine  8.27914 4.59542 -4.54808
Spine1  -0.0657173 5.43621 -9.13758
HEad  -12.7093 26.4666 -0.926298
LeftShoulder1  1.27188 -0.0605274 -29.609
LeftArm  -5.07066 -9.02381 -13.997
LeftForeArm  -8.50433 -6.69271 -16.2707
LeftHand  0.694293 -1.22036 -12.0922
RightShoulder  11.2677 17.1445 47.7289
RightArm  26.2598 -3.56056 17.6007
RightForeArm  -14.1449 30.1732 7.31186
RightHand  1.88728 7.38021 16.6186
LeftUpLeg  -26.7663 6.88404 -15.1929
LeftLeg  31.473 11.0068 7.56066
LeftFoot  -7.67895 -0.201004 7.72311
LeftToes  -2.158e-010 -1.26819e-010 -1.05346e-011
1476
root  37.8468 37.3526 -0.319242 176.237 35.9443 172.897
RightUpLeg  -7.71444 1.39257 -8.71835
RightLeg  64.5386 6.86515 14.8588
RightFoot  7.11337 -4.33647 26.5561
RightToes  -5.28216e-011 1.2921e-014 -6.02303e-014
Spine  8.76522 3.60668 -5.89087
Spine1  -0.0851238 3.97705 -7.9042
HEad  -12.9363 28.3817 -2.71937
LeftShoulder1  1.44566 -0.413417 -30.8507
LeftArm  0.4307 -11.0631 -16.9505
LeftForeArm  -8.9798 -6.06159 -17.1121
LeftHand  0.744448 -1.68772 -12.0636
RightShoulder  10.828 16.5793 47.153
RightArm  29.9642 -4.03393 18.0636
RightForeArm  -16.8743 27.458 6.75771
RightHand  1.91083 7.59154 16.5456
LeftUpLeg  -23.7219 7.11179 -14.9516
LeftLeg  31.5793 10.554 7.30535
LeftFoot  -9.84696 -0.0297694 6.8227
LeftToes  -2.158e-010 -1.26819e-010 -1.05346e-011
1477
root  38.656 37.7309 -1.45811 176.07 34.9059 173.919
RightUpLeg  -12.3518 1.02246 -8.95173
RightLeg  67.1046 2.7876 6.59695
RightFoot  5.01757 -2.77515 19.3792
RightToes  -5.28216e-011 1.2921e-014 -6.02303e-014
Spine  9.18143 2.58454 -6.10533
Spine1  -0.375865 2.5859 -6.29918
HEad  -12.1663 29.548 -3.49337
LeftShoulder1  1.60415 -0.731278 -31.8328
LeftArm  12.3802 -13.0562 -21.0797
LeftForeArm  -11.4655 -8.15283 -17.1931
LeftHand  0.778907 -2.38634 -11.4279
RightShoulder  10.0622 15.2632 46.9009
RightArm  34.4056 -4.57742 17.6482
RightForeArm  -19.6063 24.4248 6.15963
RightHand  1.89863 7.86794 16.0862
LeftUpLeg  -19.477 7.15623 -13.7316
LeftLeg  30.0547 9.94266 6.54184
LeftFoot  -11.4514 0.0747421 6.04319
LeftToes  -2.158e-010 -1.26819e-010 -1.05346e-011
1478
root  39.4691 38.1653 -2.61275 176.665 33.9429 175.361
RightUpLeg  -16.7962 0.491441 -8.65085
RightLeg  66.3147 -0.366881 -1.56583
RightFoot  3.7674 -1.79893 13.7006
RightToes  -5.28216e-011 1.2921e-014 -6.02303e-014
Spine  8.79789 1.69023 -5.63567
Spine1  -0.498824 1.58325 -5.07227
HEad  -11.119 30.0655 -3.3211
LeftShoulder1  1.70014 -0.938747 -32.2275
LeftArm  26.5361 -14.3143 -26.1598
LeftForeArm  -15.5453 -12.2262 -15.6816
LeftHand  0.75925 -2.95112 -10.336
RightShoulder  9.30373 13.8571 46.8922
RightArm  33.7417 -5.19103 16.6173
RightForeArm  -17.9295 20.1462 8.13123
RightHand  1.82862 8.00618 15.322
LeftUpLeg  -15.3188 7.95652 -12.0609
LeftLeg  27.4051 8.58625 5.16148
LeftFoot  -12.5922 0.136246 5.53656
LeftToes  -2.158e-010 -1.26819e-010 -1.05346e-011
1479
root  40.2867 38.5799 -3.76387 177.567 32.79 176.936
RightUpLeg  -20.2062 -0.24922 -8.1233
RightLeg  61.9013 -2.76232 -6.13026
RightFoot  1.47509 -1.28367 11.4838
RightToes  -5.28216e-011 1.2921e-014 -6.02303e-014
Spine  8.40606 0.95996 -5.08829
Spine1  -0.927479 0.748953 -3.5043
HEad  -10.2262 30.3531 -2.90878
LeftShoulder1  1.73882 -1.0221 -32.3784
LeftArm  37.678 -14.7594 -31.532
LeftForeArm  -18.5625 -16.1169 -12.9966
LeftHand  0.738487 -3.66056 -9.20766
RightShoulder  8.3751 12.2343 46.5703
RightArm  22.5777 -5.62318 15.0737
RightForeArm  -7.08285 13.1898 13.2863
RightHand  1.74107 8.03896 14.5423
LeftUpLeg  -11.1329 7.98531 -9.84129
LeftLeg  24.2015 7.67439 3.41357
LeftFoot  -13.379 0.174667 5.29278
LeftToes  -2.158e-010 -1.26819e-010 -1.05346e-011
1480
root  41.1035 38.9136 -4.89503 178.333 31.4714 178.285
RightUpLeg  -22.2951 -1.32975 -7.70426
RightLeg  54.0127 -4.18718 -6.55866
RightFoot  0.352906 -1.07421 10.4857
RightToes  -5.28216e-011 1.2921e-014 -6.02303e-014
Spine  7.98851 0.339013 -4.66799
Spine1  -1.2146 0.0387266 -1.91718
HEad  -9.50044 30.1423 -2.45705
LeftShoulder1  1.74414 -1.04022 -32.3426
LeftArm  44.3046 -15.1026 -36.7945
LeftForeArm  -19.157 -18.5977 -10.5912
LeftHand  0.758964 -4.36744 -8.73389
RightShoulder  7.60634 10.8631 46.3359
RightArm  10.0633 -6.33671 13.1554
RightForeArm  3.16585 5.02886 16.3787
RightHand  1.64646 7.83615 13.9595
LeftUpLeg  -7.03364 7.58669 -7.6234
LeftLeg  20.9746 6.91589 1.60395
LeftFoot  -13.8795 0.200433 5.27586
LeftToes  -2.158e-010 -1.26819e-010 -1.05346e-011
1481
root  41.9015 39.142 -6.00598 179.259 29.739 179.47
RightUpLeg  -23.1264 -3.09162 -7.31488
RightLeg  42.8039 -4.49461 -4.73093
RightFoot  0.203429 -1.11782 11.0395
RightToes  -5.28216e-011 1.2921e-014 -6.02303e-014
Spine  7.24832 -0.315417 -4.09442
Spine1  -1.15455 -0.653439 -0.470733
HEad  -9.19307 29.6595 -2.40291
LeftShoulder1  1.77837 -1.09953 -32.592
LeftArm  48.5257 -15.7709 -41.3809
LeftForeArm  -18.1302 -20.2714 -8.68069
LeftHand  0.711525 -4.91766 -7.70045
RightShoulder  6.99573 9.77079 46.1237
RightArm  2.09136 -7.39496 11.3544
RightForeArm  8.51288 -1.89315 16.9701
RightHand  1.52235 7.48734 13.2542
LeftUpLeg  -3.50314 7.28627 -5.60552
LeftLeg  18.01 5.4733 0.0167137
LeftFoot  -14.3249 0.226325 5.37856
LeftToes  -2.158e-010 -1.26819e-010 -1.05346e-011
1482
root  42.7025 39.2718 -7.10191 179.98 27.9612 -179.928
RightUpLeg  -22.451 -5.28206 -7.19644
RightLeg  28.4895 -4.25803 -2.72404
RightFoot  0.319063 -1.24541 12.1758
RightToes  -5.28216e-011 1.2921e-014 -6.02303e-014
Spine  6.63211 -0.815957 -3.84024
Spine1  -1.21196 -1.18309 0.669099
HEad  -8.99523 28.8057 -2.3143
LeftShoulder1  1.84587 -1.24333 -32.8445
LeftArm  51.1619 -16.3649 -45.27
LeftForeArm  -15.9291 -21.4959 -7.22547
LeftHand  0.728911 -5.54187 -7.4063
RightShoulder  6.5069 8.87433 46.0098
RightArm  -0.514639 -8.62467 9.8367
RightForeArm  10.0163 -6.92679 16.7659
RightHand  1.3871 7.10663 12.4397
LeftUpLeg  -0.306405 6.17149 -4.49728
LeftLeg  15.1861 4.64494 -0.508982
LeftFoot  -14.7098 0.23403 4.94819
LeftToes  -2.158e-010 -1.26819e-010 -1.05346e-011
